<?xml version="1.0" encoding="UTF-8"?>
<svg viewBox="0 0 480 200" xmlns="http://www.w3.org/2000/svg" role="img">
  <title>ABH&amp;Co. — Cream on Dark Lockup</title>
  <defs>
    <style><![CDATA[
      @import url('https://fonts.googleapis.com/css2?family=Cormorant+Garamond:ital,wght@0,300;0,400;0,500;0,600;1,300&family=Noto+Naskh+Arabic:wght@400;600;700&family=Montserrat:wght@300;400;500&display=swap');
    ]]></style>
  </defs>
  <rect width="480" height="200" fill="#0A0907"/>
  <g transform="translate(190, 12)">
    <path d="M 22,100 L 22,36 C 22,20 37,8 50,8 C 63,8 78,20 78,36 L 78,100 L 22,100 Z" fill="none" stroke="#C9A84C" stroke-width="2"/>
    <path d="M 28,94 L 28,36 C 28,24 39,14 50,14 C 61,14 72,24 72,36 L 72,94 L 28,94 Z" fill="none" stroke="#C9A84C" stroke-width="0.9" opacity="0.75"/>
    <polygon points="50,18 54,23 50,28 46,23" fill="#C9A84C"/>
    <text x="50" y="62" text-anchor="middle" font-family="'Cormorant Garamond',Garamond,serif" font-size="28" font-weight="600" letter-spacing="0.04em" fill="#F5EDD6">ABH</text>
    <rect x="36" y="71" width="28" height="1" fill="#C9A84C"/>
    <text x="50" y="84" text-anchor="middle" font-family="'Montserrat',sans-serif" font-size="7" font-weight="500" letter-spacing="0.28em" fill="#C9A84C">&amp; CO.</text>
  </g>
  <rect x="40" y="120" width="400" height="1" fill="#C9A84C"/>
  <text x="240" y="145" font-family="'Noto Naskh Arabic',serif" font-size="25" font-weight="700" fill="#F5EDD6" text-anchor="middle" direction="rtl">&#x639;&#x628;&#x62F;&#x627;&#x644;&#x644;&#x647; &#x628;&#x646; &#x62D;&#x627;&#x631;&#x628; &#x648;&#x645;&#x634;&#x627;&#x631;&#x643;&#x648;&#x647;</text>
  <text x="240" y="165" font-family="'Montserrat',Arial,sans-serif" font-size="8" font-weight="400" fill="#C9A84C" text-anchor="middle" letter-spacing="0.28em">ABDALLAH BIN HAREB AND COMPANY</text>
  <text x="240" y="181" font-family="'Montserrat',Arial,sans-serif" font-size="7" font-weight="300" fill="#F5EDD6" opacity="0.65" text-anchor="middle" letter-spacing="0.22em">LAWYERS &amp; COUNSELORS AT LAW</text>
</svg>
